<?xml version="1.0" encoding="UTF-8" standalone="no"?>
<!DOCTYPE svg PUBLIC "-//W3C//DTD SVG 1.1//EN"
 "http://www.w3.org/Graphics/SVG/1.1/DTD/svg11.dtd">
<!-- Generated by graphviz version 2.38.0 (20140413.2041)
 -->
<!-- Title: snakemake_dag Pages: 1 -->
<svg width="140pt" height="476pt"
 viewBox="0.00 0.00 139.50 476.00" xmlns="http://www.w3.org/2000/svg" xmlns:xlink="http://www.w3.org/1999/xlink">
<g id="graph0" class="graph" transform="scale(1 1) rotate(0) translate(4 472)">
<title>snakemake_dag</title>
<polygon fill="white" stroke="none" points="-4,4 -4,-472 135.5,-472 135.5,4 -4,4"/>
<!-- 0 -->
<g id="node1" class="node"><title>0</title>
<path fill="none" stroke="#56d8c9" stroke-width="2" d="M94,-252C94,-252 62,-252 62,-252 56,-252 50,-246 50,-240 50,-240 50,-228 50,-228 50,-222 56,-216 62,-216 62,-216 94,-216 94,-216 100,-216 106,-222 106,-228 106,-228 106,-240 106,-240 106,-246 100,-252 94,-252"/>
<text text-anchor="middle" x="78" y="-231.5" font-family="sans" font-size="10.00">vcf2ped</text>
</g>
<!-- 5 -->
<g id="node6" class="node"><title>5</title>
<path fill="none" stroke="#78d856" stroke-width="2" d="M74,-180C74,-180 12,-180 12,-180 6,-180 0,-174 0,-168 0,-168 0,-156 0,-156 0,-150 6,-144 12,-144 12,-144 74,-144 74,-144 80,-144 86,-150 86,-156 86,-156 86,-168 86,-168 86,-174 80,-180 74,-180"/>
<text text-anchor="middle" x="43" y="-159.5" font-family="sans" font-size="10.00">plink_recodeA</text>
</g>
<!-- 0&#45;&gt;5 -->
<g id="edge5" class="edge"><title>0&#45;&gt;5</title>
<path fill="none" stroke="grey" stroke-width="2" d="M69.3483,-215.697C65.3642,-207.728 60.5498,-198.1 56.1321,-189.264"/>
<polygon fill="grey" stroke="grey" stroke-width="2" points="59.1549,-187.483 51.5522,-180.104 52.8939,-190.614 59.1549,-187.483"/>
</g>
<!-- 6 -->
<g id="node7" class="node"><title>6</title>
<path fill="none" stroke="#56d87b" stroke-width="2" d="M107.5,-108C107.5,-108 48.5,-108 48.5,-108 42.5,-108 36.5,-102 36.5,-96 36.5,-96 36.5,-84 36.5,-84 36.5,-78 42.5,-72 48.5,-72 48.5,-72 107.5,-72 107.5,-72 113.5,-72 119.5,-78 119.5,-84 119.5,-84 119.5,-96 119.5,-96 119.5,-102 113.5,-108 107.5,-108"/>
<text text-anchor="middle" x="78" y="-87.5" font-family="sans" font-size="10.00">gwas_kinship</text>
</g>
<!-- 0&#45;&gt;6 -->
<g id="edge6" class="edge"><title>0&#45;&gt;6</title>
<path fill="none" stroke="grey" stroke-width="2" d="M85.0661,-215.665C88.8381,-205.47 93.0881,-192.22 95,-180 97.4731,-164.192 97.4731,-159.808 95,-144 93.6408,-135.312 91.0998,-126.104 88.389,-117.843"/>
<polygon fill="grey" stroke="grey" stroke-width="2" points="91.6693,-116.62 85.0661,-108.335 85.0612,-118.93 91.6693,-116.62"/>
</g>
<!-- 1 -->
<g id="node2" class="node"><title>1</title>
<path fill="none" stroke="#d85656" stroke-width="2" d="M114,-468C114,-468 42,-468 42,-468 36,-468 30,-462 30,-456 30,-456 30,-444 30,-444 30,-438 36,-432 42,-432 42,-432 114,-432 114,-432 120,-432 126,-438 126,-444 126,-444 126,-456 126,-456 126,-462 120,-468 114,-468"/>
<text text-anchor="middle" x="78" y="-447.5" font-family="sans" font-size="10.00">filter_genotypes</text>
</g>
<!-- 4 -->
<g id="node5" class="node"><title>4</title>
<path fill="none" stroke="#c6d856" stroke-width="2" d="M94,-396C94,-396 62,-396 62,-396 56,-396 50,-390 50,-384 50,-384 50,-372 50,-372 50,-366 56,-360 62,-360 62,-360 94,-360 94,-360 100,-360 106,-366 106,-372 106,-372 106,-384 106,-384 106,-390 100,-396 94,-396"/>
<text text-anchor="middle" x="78" y="-375.5" font-family="sans" font-size="10.00">ped2vcf</text>
</g>
<!-- 1&#45;&gt;4 -->
<g id="edge4" class="edge"><title>1&#45;&gt;4</title>
<path fill="none" stroke="grey" stroke-width="2" d="M78,-431.697C78,-423.983 78,-414.712 78,-406.112"/>
<polygon fill="grey" stroke="grey" stroke-width="2" points="81.5001,-406.104 78,-396.104 74.5001,-406.104 81.5001,-406.104"/>
</g>
<!-- 2 -->
<g id="node3" class="node"><title>2</title>
<path fill="none" stroke="#56a2d8" stroke-width="2" d="M93,-36C93,-36 63,-36 63,-36 57,-36 51,-30 51,-24 51,-24 51,-12 51,-12 51,-6 57,-0 63,-0 63,-0 93,-0 93,-0 99,-0 105,-6 105,-12 105,-12 105,-24 105,-24 105,-30 99,-36 93,-36"/>
<text text-anchor="middle" x="78" y="-15.5" font-family="sans" font-size="10.00">all</text>
</g>
<!-- 3 -->
<g id="node4" class="node"><title>3</title>
<path fill="none" stroke="#d8a456" stroke-width="2" d="M119.5,-324C119.5,-324 36.5,-324 36.5,-324 30.5,-324 24.5,-318 24.5,-312 24.5,-312 24.5,-300 24.5,-300 24.5,-294 30.5,-288 36.5,-288 36.5,-288 119.5,-288 119.5,-288 125.5,-288 131.5,-294 131.5,-300 131.5,-300 131.5,-312 131.5,-312 131.5,-318 125.5,-324 119.5,-324"/>
<text text-anchor="middle" x="78" y="-303.5" font-family="sans" font-size="10.00">impute_genotypes</text>
</g>
<!-- 3&#45;&gt;0 -->
<g id="edge1" class="edge"><title>3&#45;&gt;0</title>
<path fill="none" stroke="grey" stroke-width="2" d="M78,-287.697C78,-279.983 78,-270.712 78,-262.112"/>
<polygon fill="grey" stroke="grey" stroke-width="2" points="81.5001,-262.104 78,-252.104 74.5001,-262.104 81.5001,-262.104"/>
</g>
<!-- 4&#45;&gt;3 -->
<g id="edge3" class="edge"><title>4&#45;&gt;3</title>
<path fill="none" stroke="grey" stroke-width="2" d="M78,-359.697C78,-351.983 78,-342.712 78,-334.112"/>
<polygon fill="grey" stroke="grey" stroke-width="2" points="81.5001,-334.104 78,-324.104 74.5001,-334.104 81.5001,-334.104"/>
</g>
<!-- 5&#45;&gt;6 -->
<g id="edge7" class="edge"><title>5&#45;&gt;6</title>
<path fill="none" stroke="grey" stroke-width="2" d="M51.6517,-143.697C55.6358,-135.728 60.4502,-126.1 64.8679,-117.264"/>
<polygon fill="grey" stroke="grey" stroke-width="2" points="68.1061,-118.614 69.4478,-108.104 61.8451,-115.483 68.1061,-118.614"/>
</g>
<!-- 6&#45;&gt;2 -->
<g id="edge2" class="edge"><title>6&#45;&gt;2</title>
<path fill="none" stroke="grey" stroke-width="2" d="M78,-71.6966C78,-63.9827 78,-54.7125 78,-46.1124"/>
<polygon fill="grey" stroke="grey" stroke-width="2" points="81.5001,-46.1043 78,-36.1043 74.5001,-46.1044 81.5001,-46.1043"/>
</g>
</g>
</svg>
